<?xml version="1.0" encoding="UTF-8"?>
<svg version="1.1" xmlns="http://www.w3.org/2000/svg" width="886" height="234">
<path d="M0 0 C292.38 0 584.76 0 886 0 C886 77.22 886 154.44 886 234 C593.62 234 301.24 234 0 234 C0 156.78 0 79.56 0 0 Z " fill="#030507" transform="translate(0,0)"/>
<path d="M0 0 C1.94331271 1.56618581 3.39256369 3.07107643 5 5 C5.33 2.36 5.66 -0.28 6 -3 C13.59 -3 21.18 -3 29 -3 C29.0905025 9.49178131 29.16383241 21.98334353 29.20724869 34.47537899 C29.22809021 40.27643489 29.25634544 46.07725412 29.30175781 51.87817383 C29.34533755 57.48028948 29.36916293 63.08217801 29.37950897 68.68445015 C29.38687855 70.81781144 29.40126954 72.95116082 29.42292023 75.08442497 C29.45211504 78.08121111 29.45594924 81.0770683 29.45410156 84.07397461 C29.46848267 84.94863876 29.48286377 85.82330292 29.49768066 86.72447205 C29.44712204 94.34271262 27.03482398 99.97683294 22.8125 106.25 C13.67929676 115.18024317 3.06480589 116.31039999 -9.15625 116.1953125 C-10.29912476 116.1924826 -11.44199951 116.18965271 -12.61950684 116.18673706 C-16.24644732 116.17560025 -19.87313496 116.15050741 -23.5 116.125 C-25.96874642 116.11496181 -28.43749673 116.10583743 -30.90625 116.09765625 C-36.93758532 116.07568219 -42.96877459 116.04226957 -49 116 C-45.16947493 108.23373463 -39.92465062 100.92277579 -32 97 C-25.25643358 95.72193103 -18.53999929 95.79572804 -11.7043457 96.12036133 C-5.09185701 96.71204853 -5.09185701 96.71204853 1.00292969 94.77783203 C4.73068731 90.44301295 5.18275488 85.79167954 5.5625 80.3125 C5.64628906 79.13300781 5.73007812 77.95351562 5.81640625 76.73828125 C5.90728516 75.38283203 5.90728516 75.38283203 6 74 C5.34 74 4.68 74 4 74 C4 74.66 4 75.32 4 76 C-4.39753461 82.85062034 -14.47560522 83.91406083 -25 83 C-35.61862201 81.31673099 -43.67510612 76.40707639 -50.5 68.14453125 C-52.93523341 64.66290849 -54.55661756 60.98127289 -56 57 C-56.35835938 56.12859375 -56.71671875 55.2571875 -57.0859375 54.359375 C-58.31978626 49.82471715 -58.34169552 45.55462399 -58.3125 40.875 C-58.30686035 39.94010742 -58.3012207 39.00521484 -58.29541016 38.04199219 C-58.07696891 25.57137615 -55.63516563 16.01003374 -46.92578125 6.80859375 C-34.98590902 -4.50615428 -14.69787216 -9.16421113 0 0 Z " fill="#FBFBFB" transform="translate(513,75)"/>
<path d="M0 0 C8.77777116 5.42330306 15.39590458 13.15430381 18.25390625 23.1328125 C21.7037418 39.04963997 20.03341719 53.77256756 11.5703125 67.74609375 C5.72718196 75.35721014 -2.6052836 80.48916961 -12.04296875 82.4609375 C-21.65039355 83.60879676 -30.89759494 83.77227191 -39.4296875 78.74609375 C-41.0796875 77.42609375 -42.7296875 76.10609375 -44.4296875 74.74609375 C-44.4296875 88.27609375 -44.4296875 101.80609375 -44.4296875 115.74609375 C-52.0196875 115.74609375 -59.6096875 115.74609375 -67.4296875 115.74609375 C-67.4296875 76.47609375 -67.4296875 37.20609375 -67.4296875 -3.25390625 C-59.8396875 -3.25390625 -52.2496875 -3.25390625 -44.4296875 -3.25390625 C-44.0996875 -0.61390625 -43.7696875 2.02609375 -43.4296875 4.74609375 C-42.223125 3.63234375 -42.223125 3.63234375 -40.9921875 2.49609375 C-29.34095174 -6.97053531 -13.12618056 -6.77412212 0 0 Z " fill="#FCFCFC" transform="translate(426.4296875,75.25390625)"/>
<path d="M0 0 C5.14601501 2.89214022 7.93425723 6.11132429 11.015625 11.1328125 C11.43972656 10.60171875 11.86382813 10.070625 12.30078125 9.5234375 C18.10157802 2.53698337 23.75171827 -1.57087291 33.015625 -2.8671875 C43.2466603 -3.81291345 52.24304002 -2.24047691 60.390625 4.3203125 C65.91989987 9.58845119 69.80870347 16.25502007 70.13587952 23.96759033 C70.13365891 25.06013123 70.13143829 26.15267212 70.12915039 27.27832031 C70.12907486 28.51930481 70.12899933 29.76028931 70.12892151 31.03887939 C70.12381531 32.38789917 70.11859932 33.73691854 70.11328125 35.0859375 C70.11141524 36.47027536 70.1099922 37.85461388 70.10899353 39.23895264 C70.10518273 42.87542558 70.09536475 46.51185832 70.08428955 50.14831543 C70.0740445 53.86189226 70.06948929 57.5754756 70.06445312 61.2890625 C70.05374115 68.57033291 70.03615603 75.85156194 70.015625 83.1328125 C62.095625 83.1328125 54.175625 83.1328125 46.015625 83.1328125 C45.97824219 79.23210937 45.94085937 75.33140625 45.90234375 71.3125 C45.85611668 67.52956574 45.80488712 63.74672996 45.75317383 59.96386719 C45.71994462 57.33730059 45.6919065 54.71066293 45.66918945 52.08398438 C45.63560772 48.30568189 45.58328747 44.52802945 45.52734375 40.75 C45.52095383 39.57790985 45.5145639 38.4058197 45.50798035 37.19821167 C45.3844065 29.2429742 45.3844065 29.2429742 42.015625 22.1328125 C38.41911687 18.71612978 35.41335674 17.7996509 30.578125 17.5078125 C25.63086139 17.69653645 22.95630067 18.90646677 19.35546875 22.234375 C15.11877948 28.23738079 15.67353136 35.2824535 15.6015625 42.3125 C15.58219635 43.4804007 15.5628302 44.64830139 15.5428772 45.85159302 C15.48324839 49.57025928 15.43676226 53.28895678 15.390625 57.0078125 C15.35242991 59.53386743 15.31337729 62.05990955 15.2734375 64.5859375 C15.17595171 70.76816133 15.09624862 76.95025386 15.015625 83.1328125 C7.095625 83.1328125 -0.824375 83.1328125 -8.984375 83.1328125 C-9.02175781 79.23210937 -9.05914063 75.33140625 -9.09765625 71.3125 C-9.14388332 67.52956574 -9.19511288 63.74672996 -9.24682617 59.96386719 C-9.28005538 57.33730059 -9.3080935 54.71066293 -9.33081055 52.08398438 C-9.36439228 48.30568189 -9.41671253 44.52802945 -9.47265625 40.75 C-9.47904617 39.57790985 -9.4854361 38.4058197 -9.49201965 37.19821167 C-9.61276589 30.48391003 -10.0595269 25.66700395 -14.484375 20.3203125 C-18.14862378 17.41944889 -22.72605886 17.68332588 -27.18359375 17.71875 C-31.62176221 18.3748809 -34.34188905 20.58124975 -36.984375 24.1328125 C-38.68617949 27.75979582 -39.24711367 30.66438109 -39.30322266 34.6574707 C-39.32309235 35.73821365 -39.34296204 36.8189566 -39.36343384 37.93244934 C-39.38076065 39.66551582 -39.38076065 39.66551582 -39.3984375 41.43359375 C-39.41780365 42.62510544 -39.4371698 43.81661713 -39.4571228 45.04423523 C-39.51683396 48.84452182 -39.56327081 52.64483884 -39.609375 56.4453125 C-39.6475625 59.02410165 -39.68661468 61.60287815 -39.7265625 64.18164062 C-39.82252869 70.49858552 -39.90760116 76.81560678 -39.984375 83.1328125 C-43.79685926 83.16168486 -47.6093157 83.17956742 -51.421875 83.1953125 C-52.51048828 83.20369141 -53.59910156 83.21207031 -54.72070312 83.22070312 C-55.75517578 83.22392578 -56.78964844 83.22714844 -57.85546875 83.23046875 C-58.81380615 83.23570557 -59.77214355 83.24094238 -60.75952148 83.24633789 C-62.984375 83.1328125 -62.984375 83.1328125 -63.984375 82.1328125 C-64.07947059 79.51592809 -64.109935 76.9255235 -64.09790039 74.30834961 C-64.09804642 73.48890366 -64.09819244 72.6694577 -64.0983429 71.82518005 C-64.09764352 69.10347897 -64.08985001 66.38184545 -64.08203125 63.66015625 C-64.08016716 61.77828509 -64.07874321 59.89641344 -64.07774353 58.01454163 C-64.07391767 53.05132721 -64.06408681 48.08814186 -64.05303955 43.12493896 C-64.0428269 38.06441644 -64.03824622 33.00388923 -64.03320312 27.94335938 C-64.02246459 18.00649556 -64.00486725 8.06966099 -63.984375 -1.8671875 C-56.064375 -1.8671875 -48.144375 -1.8671875 -39.984375 -1.8671875 C-39.654375 1.4328125 -39.324375 4.7328125 -38.984375 8.1328125 C-38.283125 7.3903125 -37.581875 6.6478125 -36.859375 5.8828125 C-26.58615914 -3.9437418 -12.95659555 -6.1350767 0 0 Z " fill="#FAFAFA" transform="translate(775.984375,73.8671875)"/>
<path d="M0 0 C9.631875 -0.0825 19.26375 -0.165 29.1875 -0.25 C33.70860474 -0.30462402 33.70860474 -0.30462402 38.32104492 -0.36035156 C40.74917899 -0.37204999 43.17732099 -0.38223906 45.60546875 -0.390625 C46.83446899 -0.41108887 48.06346924 -0.43155273 49.32971191 -0.45263672 C66.19783424 -0.45933906 80.47256274 5.92880137 92.6796875 17.48828125 C105.74892358 31.63561929 108.86642041 46.98377828 108.17480469 65.5546875 C107.24007734 78.63042647 99.62187951 92.22710986 90 101 C81.98806025 107.44438632 73.90346979 111.95935391 64 115 C62.87891846 115.34603271 61.75783691 115.69206543 60.6027832 116.04858398 C54.84959728 117.46458948 49.07798498 117.24765081 43.1875 117.1953125 C41.97803711 117.1924826 40.76857422 117.18965271 39.52246094 117.18673706 C35.68153752 117.17559396 31.84085225 117.15049983 28 117.125 C25.38672213 117.11496263 22.77344059 117.1058381 20.16015625 117.09765625 C13.77335704 117.07567383 7.38669554 117.04225475 1 117 C1.72264316 113.7379449 2.47827934 112.15129386 4.87890625 109.79296875 C5.47123047 109.20580078 6.06355469 108.61863281 6.67382812 108.01367188 C7.29708984 107.41103516 7.92035156 106.80839844 8.5625 106.1875 C9.15869141 105.59646484 9.75488281 105.00542969 10.36914062 104.39648438 C11.59760781 103.18908415 12.84230027 101.99800094 14.1015625 100.82275391 C16.02805449 99.02731355 16.02805449 99.02731355 17.7265625 97.01708984 C21.86175466 92.62847203 24.95707806 91.53159065 30.9921875 91.203125 C33.6197731 91.18463947 36.24780246 91.20120552 38.875 91.25 C51.94325366 91.33994865 62.6984895 90.74246964 73 82 C80.85110051 73.72034597 82.55625576 65.87798243 82.27734375 54.62109375 C81.59498183 45.71194585 78.23184012 39.40633164 72 33 C69.47135089 30.96696612 66.93610787 29.37520266 64 28 C62.92621094 27.47535156 61.85242188 26.95070313 60.74609375 26.41015625 C54.16877894 23.99509021 46.91291929 24.42384758 40 24.3125 C35.05 24.209375 30.1 24.10625 25 24 C25 36.87 25 49.74 25 63 C16.75 63 8.5 63 0 63 C0 42.21 0 21.42 0 0 Z " fill="#FBFBFB" transform="translate(49,40)"/>
<path d="M0 0 C9.43330468 6.53775363 15.44417019 14.79068538 18.7734375 25.71484375 C18.7734375 31.65484375 18.7734375 37.59484375 18.7734375 43.71484375 C-1.3565625 43.71484375 -21.4865625 43.71484375 -42.2265625 43.71484375 C-38.63833412 54.00496602 -38.63833412 54.00496602 -31.2265625 60.52734375 C-24.7444822 62.95289638 -16.99432787 62.88123383 -10.6640625 60.08984375 C-6.56746331 58.02832932 -6.59654181 56.45480238 -4.2265625 51.71484375 C3.3634375 51.71484375 10.9534375 51.71484375 18.7734375 51.71484375 C17.49859713 60.63872631 14.61139895 66.7379599 7.5859375 72.52734375 C-3.95554644 80.80200088 -15.35147599 82.82958364 -29.2265625 81.71484375 C-40.25537979 79.75887829 -49.89635343 74.49968887 -56.91796875 65.66796875 C-65.02135239 53.5733663 -67.61431567 39.9719767 -64.82373047 25.64697266 C-61.8351617 14.74833257 -54.94270365 5.35062816 -45.25 -0.47265625 C-31.40519926 -7.74251301 -13.63942581 -7.87258086 0 0 Z " fill="#FAFBFB" transform="translate(326.2265625,76.28515625)"/>
<path d="M0 0 C8.40509398 6.34092162 13.0445924 14.83195113 15.6875 24.875 C15.6875 30.485 15.6875 36.095 15.6875 41.875 C-4.4425 41.875 -24.5725 41.875 -45.3125 41.875 C-41.60973125 52.809516 -41.60973125 52.809516 -33.3125 58.875 C-27.11867986 60.93960671 -19.75583047 60.94034413 -13.75 58.25 C-9.65340081 56.18848557 -9.68247931 54.61495863 -7.3125 49.875 C0.2775 49.875 7.8675 49.875 15.6875 49.875 C14.40506006 58.85207955 11.00482527 65.90731647 3.7265625 71.56640625 C-8.05612725 79.12809412 -21.93779753 81.97138075 -35.71484375 79.1875 C-47.69888709 75.83140852 -56.77376161 69.75375806 -63.04296875 58.87109375 C-68.98818733 47.36194139 -70.39715885 34.74378569 -67.40625 22.01953125 C-63.08595374 10.20795206 -55.87209235 1.38398254 -44.59765625 -4.265625 C-29.71095182 -9.86404376 -13.43993419 -8.53617442 0 0 Z " fill="#FBFBFB" transform="translate(234.3125,78.125)"/>
<path d="M0 0 C6.30485446 5.18280409 10.71002699 10.42511914 11.80807495 18.71951294 C12.24597506 23.92271876 12.11950395 29.15371444 12.09765625 34.37109375 C12.0962413 35.64855972 12.09482635 36.9260257 12.09336853 38.24220276 C12.08873516 41.61724746 12.07977023 44.99222297 12.06866455 48.36724854 C12.05838426 51.81969611 12.05385681 55.27215087 12.04882812 58.72460938 C12.03782466 65.48309431 12.02057322 72.2415377 12 79 C4.08 79 -3.84 79 -12 79 C-12.495 74.545 -12.495 74.545 -13 70 C-13.66 70.7425 -14.32 71.485 -15 72.25 C-20.61051503 77.89257511 -27.83786252 80.15132831 -35.625 80.3125 C-45.22807141 80.21370297 -51.33256036 77.34899987 -58.33984375 70.87109375 C-60.81531957 68.08108689 -61.84331671 65.53809008 -63 62 C-63.33 61.01 -63.66 60.02 -64 59 C-64.93555042 50.96763141 -63.81589078 44.58957549 -59 38 C-50.95983509 29.74211303 -42.29100195 27.73989467 -31.06445312 27.47851562 C-29.90880859 27.46498047 -28.75316406 27.45144531 -27.5625 27.4375 C-25.23032537 27.40318462 -22.89825235 27.36064984 -20.56640625 27.30859375 C-19.54490479 27.29626709 -18.52340332 27.28394043 -17.47094727 27.27124023 C-14.8243634 27.24151523 -14.8243634 27.24151523 -13 25 C-12.34538064 19.40953571 -12.34538064 19.40953571 -14.75 14.625 C-20.1224453 10.74490062 -24.4725356 10.34725356 -31 11 C-34.53456036 11.90006463 -37.23884255 13.21259574 -39.8125 15.875 C-41.28715413 18.40679341 -41.28715413 18.40679341 -43 23 C-49.93 23 -56.86 23 -64 23 C-61.6999369 11.49968449 -58.60445712 4.56971546 -49 -2 C-33.60117675 -9.74635926 -14.61403524 -9.3276077 0 0 Z " fill="#FAFBFB" transform="translate(686,78)"/>
<path d="M0 0 C7.59 0 15.18 0 23 0 C23.33 3.96 23.66 7.92 24 12 C24.804375 10.7625 25.60875 9.525 26.4375 8.25 C29.99359499 3.61804255 33.25106559 1.22685878 39 0 C44.35398249 -0.41929578 49.62733083 -0.18059392 55 0 C55 6.6 55 13.2 55 20 C45.375 20.25 45.375 20.25 42.37646484 20.29785156 C36.6625511 20.51730651 33.38339224 21.26367995 29 25 C23.73359293 31.95918077 23.6812384 39.81934012 23.5859375 48.18359375 C23.56657135 49.23909927 23.5472052 50.2946048 23.5272522 51.38209534 C23.46775447 54.7338162 23.42119035 58.08557197 23.375 61.4375 C23.3367928 63.71811345 23.29773949 65.99871289 23.2578125 68.27929688 C23.16049434 73.85278926 23.08068821 79.42614308 23 85 C15.41 85 7.82 85 0 85 C0 56.95 0 28.9 0 0 Z " fill="#FAFAFA" transform="translate(560,72)"/>
<path d="M0 0 C5.27547904 3.92593789 9.72535896 8.6277134 11.6875 15 C12.53499705 23.15962272 12.53559199 31.09643041 7.6875 38 C3.77450655 42.2931658 -0.43354115 45.588935 -6.33984375 46.21484375 C-12.55395557 46.48040408 -18.19511426 45.66599957 -23.0390625 41.5234375 C-29.00802105 35.08401916 -30.87472004 28.43144134 -30.59765625 19.74609375 C-29.71370578 11.23352966 -26.76783196 6.66909691 -20.1875 1.25 C-14.55029745 -2.50813504 -6.23985969 -1.88373123 0 0 Z " fill="#050708" transform="translate(508.3125,92)"/>
<path d="M0 0 C5.59630593 3.27309508 9.09311942 8.01390562 11.1171875 14.109375 C13.28521898 23.78213082 10.96579509 31.00586503 5.875 39.1875 C1.39438464 43.54365383 -3.16498109 45.60246131 -9.4375 45.8125 C-16.21112425 45.47071162 -20.59913202 43.50377578 -25.1875 38.5 C-30.53253972 32.26208179 -30.98493608 26.18701778 -30.75 18.18359375 C-30.1368653 11.95644444 -28.18451165 7.02467072 -23.58984375 2.69140625 C-16.74006283 -2.44229367 -7.88488004 -3.61953541 0 0 Z " fill="#060709" transform="translate(411.375,92.625)"/>
<path d="M0 0 C4.55688464 2.63721545 7.65920619 6.39565765 9.5625 11.3125 C9.5625 12.6325 9.5625 13.9525 9.5625 15.3125 C-2.9775 15.3125 -15.5175 15.3125 -28.4375 15.3125 C-27.33157098 8.6769259 -25.82213048 5.4644836 -20.875 1 C-14.9092196 -3.13015566 -6.4867862 -3.02391537 0 0 Z " fill="#090A0C" transform="translate(312.4375,89.6875)"/>
<path d="M0 0 C3.60676431 2.57983836 6.09561793 6.09466925 7.6875 10.20703125 C7.6875 11.52703125 7.6875 12.84703125 7.6875 14.20703125 C-4.8525 14.20703125 -17.3925 14.20703125 -30.3125 14.20703125 C-29.20882279 7.58496802 -27.68697907 4.40342439 -22.8125 -0.10546875 C-16.04123488 -4.67607271 -6.89166578 -3.93213995 0 0 Z " fill="#090A0C" transform="translate(219.3125,90.79296875)"/>
<path d="M0 0 C1.54010742 0.02030273 1.54010742 0.02030273 3.11132812 0.04101562 C5.63725909 0.07626117 8.1621066 0.125533 10.6875 0.1875 C10.86478562 6.3186277 10.34861055 10.24396654 6.6875 15.1875 C2.78162852 18.9133774 -1.05534153 20.49872453 -6.4375 20.75 C-11.05574306 20.47247846 -13.99409338 19.59099397 -17.3125 16.1875 C-18.61877651 12.4407548 -18.54128138 9.21701622 -17.6875 5.375 C-13.56591768 -1.18206279 -6.88586585 -0.17181623 0 0 Z " fill="#06090A" transform="translate(663.3125,120.8125)"/>
</svg>
